#!OML:ASF H:\Terrain\Patient Classification 1\Takeo\Monday\TakeoMonday.ASF
:FULLY-SPECIFIED
:DEGREES
1258
root 8.70097 17.7777 0.466301 -5.67731 4.33231 -5.388
lowerback 9.88268 -2.42839 1.72217
upperback 1.16874 -3.35936 -6.47325
thorax -4.82552 -1.7686 -7.35138
lowerneck -9.10894 -12.3594 -7.38693
upperneck -18.7811 -15.1147 9.59356
head -2.89096 -7.35151 3.92082
rclavicle 2.9035e-014 9.54166e-015
rhumerus 56.3967 -33.4862 -20.2185
rradius 37.6806
rwrist -11.084
rhand -38.7517 33.7508
rfingers 7.12502
rthumb -11.7642 4.10119
lclavicle 2.9035e-014 9.54166e-015
lhumerus -37.9098 15.6576 70.3435
lradius 35.8564
lwrist 27.2265
lhand -28.5231 15.0238
lfingers 7.12502
lthumb -1.89109 44.9952
rfemur -5.02382 3.14557 26.1236
rtibia 16.2794
rfoot -4.51002 -10.2548
rtoes -2.37849
lfemur 5.01831 4.16281 -14.3658
ltibia 22.5417
lfoot -20.5354 25.2148
ltoes -0.805394
1259
root 8.68487 17.7742 0.481674 -5.857 4.50099 -5.66929
lowerback 9.94021 -2.41627 2.1123
upperback 1.20178 -3.30387 -6.53581
thorax -4.84129 -1.75007 -7.65503
lowerneck -9.26549 -12.4906 -7.41461
upperneck -18.89 -15.2647 9.64259
head -2.88389 -7.41894 3.9275
rclavicle 3.59241e-014 3.18055e-015
rhumerus 57.6259 -34.3704 -21.1635
rradius 36.5081
rwrist -10.644
rhand -38.9931 33.7368
rfingers 7.12502
rthumb -11.997 4.10064
lclavicle 3.59241e-014 3.18055e-015
lhumerus -38.0181 15.8675 70.0896
lradius 36.1036
lwrist 27.3787
lhand -28.5208 14.9595
lfingers 7.12502
lthumb -1.88886 44.9309
rfemur -4.79125 3.02633 26.4684
rtibia 16.3661
rfoot -4.89935 -10.1975
rtoes -1.36848
lfemur 5.42017 3.72942 -14.0821
ltibia 22.1869
lfoot -20.3399 25.5149
ltoes -1.29643
1260
root 8.66644 17.7799 0.497765 -5.89776 4.64615 -5.89187
lowerback 9.7835 -2.40472 2.43333
upperback 1.25992 -3.25762 -6.68408
thorax -4.7127 -1.73186 -8.017
lowerneck -9.60335 -12.524 -6.93358
upperneck -18.9854 -15.3335 9.39814
head -2.9179 -7.46316 3.77109
rclavicle -4.77083e-014 -4.77083e-014
rhumerus 58.9999 -35.3312 -22.4332
rradius 35.2645
rwrist -9.93163
rhand -39.2664 33.754
rfingers 7.12502
rthumb -12.2605 4.13341
lclavicle -4.77083e-014 -4.77083e-014
lhumerus -37.9197 15.8845 69.7409
lradius 36.1648
lwrist 27.2563
lhand -28.0164 15.6942
lfingers 7.12502
lthumb -1.40172 45.6694
rfemur -4.70445 2.97517 26.7627
rtibia 16.4719
rfoot -5.33039 -10.2916
rtoes -1.2995
lfemur 5.62396 3.57986 -13.7608
ltibia 21.8737
lfoot -20.1712 25.5019
ltoes -0.910909
1261
root 8.64963 17.7881 0.514364 -5.74801 4.8129 -5.58183
lowerback 9.7128 -2.39455 2.14135
upperback 1.0729 -3.29409 -6.8974
thorax -4.87389 -1.75578 -8.07615
lowerneck -10.0902 -12.491 -6.61837
upperneck -18.2938 -15.3746 8.73927
head -3.08446 -7.44865 3.80046
rclavicle -2.42766e-014 -3.81667e-014
rhumerus 60.0117 -35.8303 -23.1661
rradius 34.2517
rwrist -9.64216
rhand -39.3591 33.4348
rfingers 7.12502
rthumb -12.3499 3.8196
lclavicle -2.42766e-014 -3.81667e-014
lhumerus -38.1326 16.0137 69.3532
lradius 36.1301
lwrist 27.1316
lhand -27.8688 15.9781
lfingers 7.12502
lthumb -1.25921 45.9541
rfemur -4.74879 2.86015 26.449
rtibia 16.445
rfoot -5.45867 -10.2973
rtoes -1.1373
lfemur 5.5335 3.72369 -13.9805
ltibia 21.7777
lfoot -20.2334 25.1929
ltoes -0.751075
1262
root 8.63437 17.7873 0.530813 -5.67751 5.06023 -5.41779
lowerback 9.75608 -2.42558 1.97724
upperback 0.874561 -3.37125 -7.03371
thorax -5.12006 -1.80348 -8.11717
lowerneck -9.07373 -12.6439 -7.41998
upperneck -19.6217 -15.4121 10.057
head -3.0835 -7.49943 4.08911
rclavicle 2.6339e-015 -6.36111e-015
rhumerus 60.574 -36.1716 -23.3405
rradius 33.483
rwrist -9.74468
rhand -39.4571 33.1287
rfingers 7.12502
rthumb -12.4443 3.51918
lclavicle 2.6339e-015 -6.36111e-015
lhumerus -38.4659 16.1614 69.0527
lradius 36.1974
lwrist 27.411
lhand -28.3582 15.5458
lfingers 7.12502
lthumb -1.73183 45.5186
rfemur -4.78022 2.59976 26.2897
rtibia 16.4899
rfoot -5.38548 -10.1901
rtoes -0.898406
lfemur 5.49012 3.70839 -14.0786
ltibia 21.7482
lfoot -20.403 24.9369
ltoes -0.748597
1263
root 8.61404 17.7791 0.544808 -5.66671 5.27716 -5.73039
lowerback 9.74939 -2.44007 2.2298
upperback 0.798082 -3.36843 -7.05038
thorax -5.21307 -1.81303 -8.28483
lowerneck -14.2799 -12.4626 -4.99293
upperneck -14.2841 -15.4901 5.63136
head -1.42568 -7.48435 2.03089
rclavicle 1.97294e-014 2.54444e-014
rhumerus 61.1287 -36.6565 -23.5381
rradius 32.6494
rwrist -9.63998
rhand -39.5828 32.9524
rfingers 7.12502
rthumb -12.5656 3.35029
lclavicle 1.97294e-014 2.54444e-014
lhumerus -38.5221 16.2677 68.8152
lradius 36.2148
lwrist 27.6532
lhand -28.5655 15.1051
lfingers 7.12502
lthumb -1.93205 45.0761
rfemur -4.85152 2.56103 26.7071
rtibia 16.6359
rfoot -5.39103 -10.3516
rtoes -0.919636
lfemur 5.48121 3.68887 -13.6078
ltibia 21.6642
lfoot -20.3638 24.6392
ltoes -0.225642
1264
root 8.59457 17.7751 0.557922 -5.61658 5.51446 -5.88955
lowerback 9.67323 -2.42162 2.37045
upperback 0.800071 -3.33142 -7.12633
thorax -5.17544 -1.79854 -8.45943
lowerneck -15.4309 -12.5653 -4.43619
upperneck -13.4786 -15.6748 4.81644
head -1.09538 -7.58168 1.58094
rclavicle -6.41081e-015 3.49861e-014
rhumerus 61.7964 -37.3167 -23.9604
rradius 31.8849
rwrist -9.38232
rhand -39.496 32.7287
rfingers 7.12502
rthumb -12.4819 3.12149
lclavicle -6.41081e-015 3.49861e-014
lhumerus -38.423 16.3471 68.659
lradius 36.3244
lwrist 27.7288
lhand -28.3755 15.1821
lfingers 7.12502
lthumb -1.74854 45.1547
rfemur -4.81723 2.45975 26.9407
rtibia 16.5961
rfoot -5.51572 -10.5318
rtoes -1.24724
lfemur 5.38352 3.70203 -13.3114
ltibia 21.6694
lfoot -20.3468 24.2563
ltoes -0.518129
